# xmcd
#
# Track frame offsets: 
#        150
#        14646
#        30156
#        46383
#        62833
#        80087
#        98135
#        114076
#        130091
#        147442
#
# Disc length: 2185 seconds
#
# Revision: 0
# Processed by: cddbd v1.5.2PL0 Copyright (c) Steve Scherf et al.
# Submitted via: ExactAudioCopy v1.0b3
#
DISCID=7f08870a
DTITLE=Erin - Sä Osaat!
DYEAR=2013
DGENRE=Finnish pop
TTITLE0=Älä tule hyvä tyttö
TTITLE1=Ei taida tietää tyttö
TTITLE2=Toiset mimmit
TTITLE3=Laura tietää sen
TTITLE4=Väärä mies
TTITLE5=Mä kuulun tähän
TTITLE6=Kakkukahvit
TTITLE7=Annan maani pyöriä
TTITLE8=En sano
TTITLE9=Oisko se toi
EXTD=
EXTT0=
EXTT1=
EXTT2=
EXTT3=
EXTT4=
EXTT5=
EXTT6=
EXTT7=
EXTT8=
EXTT9=
PLAYORDER=
